<svg width="16" height="16" viewBox="0 0 16 16" fill="none" xmlns="http://www.w3.org/2000/svg">
<path d="M10.9995 10.4995C11.0651 10.4995 11.1303 10.5125 11.1909 10.5376C11.2516 10.5628 11.3076 10.5995 11.354 10.646C11.4004 10.6924 11.4373 10.7475 11.4624 10.8081C11.4875 10.8687 11.5004 10.9339 11.5005 10.9995C11.5005 11.065 11.4874 11.1304 11.4624 11.1909C11.4373 11.2516 11.4005 11.3076 11.354 11.354L8.354 14.354C8.30757 14.4005 8.25162 14.4372 8.19092 14.4624C8.13032 14.4875 8.06509 14.5005 7.99951 14.5005C7.9339 14.5005 7.86872 14.4875 7.80811 14.4624C7.74751 14.4373 7.69237 14.4004 7.646 14.354L4.646 11.354C4.55218 11.2602 4.49951 11.1322 4.49951 10.9995C4.49962 10.867 4.55227 10.7397 4.646 10.646C4.73975 10.5523 4.86696 10.4996 4.99951 10.4995C5.13219 10.4995 5.26018 10.5522 5.354 10.646L7.99951 13.2935L10.646 10.646C10.6924 10.5996 10.7475 10.5627 10.8081 10.5376C10.8687 10.5125 10.9339 10.4995 10.9995 10.4995Z" fill="#9CA3AF"/>
<path d="M7.99951 1.49951C8.06511 1.49951 8.13031 1.51252 8.19092 1.5376C8.25162 1.56276 8.30757 1.59951 8.354 1.646L11.354 4.646C11.4476 4.73971 11.5004 4.86704 11.5005 4.99951C11.5005 5.13217 11.4478 5.26019 11.354 5.354C11.2602 5.44782 11.1322 5.50049 10.9995 5.50049C10.867 5.50041 10.7397 5.44766 10.646 5.354L7.99951 2.70654L5.354 5.354C5.26018 5.44782 5.13219 5.50049 4.99951 5.50049C4.867 5.50041 4.73974 5.44766 4.646 5.354C4.55218 5.26018 4.49951 5.13219 4.49951 4.99951C4.49962 4.86697 4.55227 4.73972 4.646 4.646L7.646 1.646C7.69238 1.59958 7.7475 1.56275 7.80811 1.5376C7.86872 1.51247 7.9339 1.49955 7.99951 1.49951Z" fill="#9CA3AF"/>
</svg>
