<svg width="12" height="12" viewBox="0 0 12 12" fill="none" xmlns="http://www.w3.org/2000/svg">
<path d="M4.775 7.75752L9.09425 3.43827C9.16859 3.36385 9.25559 3.32585 9.35525 3.32427C9.45492 3.32268 9.54354 3.36068 9.62113 3.43827C9.69871 3.51585 9.7375 3.60493 9.7375 3.70552C9.7375 3.80618 9.69871 3.89531 9.62113 3.97289L5.09138 8.51039C5.00096 8.60073 4.8955 8.64589 4.775 8.64589C4.6545 8.64589 4.54904 8.60073 4.45863 8.51039L2.37113 6.42289C2.2968 6.34847 2.26013 6.26014 2.26113 6.15789C2.26204 6.05572 2.30129 5.96585 2.37888 5.88827C2.45646 5.81068 2.54554 5.77189 2.64613 5.77189C2.74679 5.77189 2.83592 5.81068 2.9135 5.88827L4.775 7.75752Z" fill="white"/>
</svg>
