<svg width="20" height="20" viewBox="0 0 20 20" fill="none" xmlns="http://www.w3.org/2000/svg">
<path d="M4.42296 17.9167C4.00199 17.9167 3.64567 17.7708 3.354 17.4792C3.06234 17.1875 2.9165 16.8312 2.9165 16.4102V5.25646C2.9165 4.83548 3.06234 4.47916 3.354 4.1875C3.64567 3.89583 4.00199 3.75 4.42296 3.75H5.57671V2.62812C5.57671 2.44548 5.63789 2.29298 5.76025 2.17062C5.88262 2.0484 6.03512 1.98729 6.21775 1.98729C6.40053 1.98729 6.55303 2.0484 6.67525 2.17062C6.79762 2.29298 6.8588 2.44548 6.8588 2.62812V3.75H13.173V2.61229C13.173 2.43493 13.2328 2.28639 13.3523 2.16666C13.4721 2.04708 13.6206 1.98729 13.798 1.98729C13.9753 1.98729 14.1238 2.04708 14.2434 2.16666C14.3631 2.28639 14.423 2.43493 14.423 2.61229V3.75H15.5767C15.9977 3.75 16.354 3.89583 16.6457 4.1875C16.9373 4.47916 17.0832 4.83548 17.0832 5.25646V16.4102C17.0832 16.8312 16.9373 17.1875 16.6457 17.4792C16.354 17.7708 15.9977 17.9167 15.5767 17.9167H4.42296ZM4.42296 16.6667H15.5767C15.6409 16.6667 15.6996 16.6399 15.753 16.5865C15.8064 16.5331 15.8332 16.4744 15.8332 16.4102V8.58979H4.1665V16.4102C4.1665 16.4744 4.19324 16.5331 4.24671 16.5865C4.30005 16.6399 4.3588 16.6667 4.42296 16.6667ZM4.1665 7.33979H15.8332V5.25646C15.8332 5.19229 15.8064 5.13354 15.753 5.08021C15.6996 5.02673 15.6409 5 15.5767 5H4.42296C4.3588 5 4.30005 5.02673 4.24671 5.08021C4.19324 5.13354 4.1665 5.19229 4.1665 5.25646V7.33979ZM9.99984 11.7308C9.79581 11.7308 9.62192 11.659 9.47817 11.5152C9.33456 11.3716 9.26275 11.1977 9.26275 10.9935C9.26275 10.7895 9.33456 10.6156 9.47817 10.4719C9.62192 10.3283 9.79581 10.2565 9.99984 10.2565C10.2039 10.2565 10.3778 10.3283 10.5215 10.4719C10.6651 10.6156 10.7369 10.7895 10.7369 10.9935C10.7369 11.1977 10.6651 11.3716 10.5215 11.5152C10.3778 11.659 10.2039 11.7308 9.99984 11.7308ZM6.6665 11.7308C6.46248 11.7308 6.28859 11.659 6.14484 11.5152C6.00123 11.3716 5.92942 11.1977 5.92942 10.9935C5.92942 10.7895 6.00123 10.6156 6.14484 10.4719C6.28859 10.3283 6.46248 10.2565 6.6665 10.2565C6.87053 10.2565 7.04442 10.3283 7.18817 10.4719C7.33178 10.6156 7.40359 10.7895 7.40359 10.9935C7.40359 11.1977 7.33178 11.3716 7.18817 11.5152C7.04442 11.659 6.87053 11.7308 6.6665 11.7308ZM13.3332 11.7308C13.1291 11.7308 12.9553 11.659 12.8115 11.5152C12.6679 11.3716 12.5961 11.1977 12.5961 10.9935C12.5961 10.7895 12.6679 10.6156 12.8115 10.4719C12.9553 10.3283 13.1291 10.2565 13.3332 10.2565C13.5372 10.2565 13.7111 10.3283 13.8548 10.4719C13.9984 10.6156 14.0703 10.7895 14.0703 10.9935C14.0703 11.1977 13.9984 11.3716 13.8548 11.5152C13.7111 11.659 13.5372 11.7308 13.3332 11.7308ZM9.99984 15C9.79581 15 9.62192 14.9281 9.47817 14.7844C9.33456 14.6408 9.26275 14.4669 9.26275 14.2629C9.26275 14.0587 9.33456 13.8849 9.47817 13.7412C9.62192 13.5975 9.79581 13.5256 9.99984 13.5256C10.2039 13.5256 10.3778 13.5975 10.5215 13.7412C10.6651 13.8849 10.7369 14.0587 10.7369 14.2629C10.7369 14.4669 10.6651 14.6408 10.5215 14.7844C10.3778 14.9281 10.2039 15 9.99984 15ZM6.6665 15C6.46248 15 6.28859 14.9281 6.14484 14.7844C6.00123 14.6408 5.92942 14.4669 5.92942 14.2629C5.92942 14.0587 6.00123 13.8849 6.14484 13.7412C6.28859 13.5975 6.46248 13.5256 6.6665 13.5256C6.87053 13.5256 7.04442 13.5975 7.18817 13.7412C7.33178 13.8849 7.40359 14.0587 7.40359 14.2629C7.40359 14.4669 7.33178 14.6408 7.18817 14.7844C7.04442 14.9281 6.87053 15 6.6665 15ZM13.3332 15C13.1291 15 12.9553 14.9281 12.8115 14.7844C12.6679 14.6408 12.5961 14.4669 12.5961 14.2629C12.5961 14.0587 12.6679 13.8849 12.8115 13.7412C12.9553 13.5975 13.1291 13.5256 13.3332 13.5256C13.5372 13.5256 13.7111 13.5975 13.8548 13.7412C13.9984 13.8849 14.0703 14.0587 14.0703 14.2629C14.0703 14.4669 13.9984 14.6408 13.8548 14.7844C13.7111 14.9281 13.5372 15 13.3332 15Z" fill="#6A80FE"/>
</svg>
