<svg width="20" height="20" viewBox="0 0 20 20" fill="none" xmlns="http://www.w3.org/2000/svg">
<path d="M10.6252 9.74692V6.45837C10.6252 6.28129 10.5652 6.13282 10.4454 6.01296C10.3255 5.89323 10.177 5.83337 9.99995 5.83337C9.82273 5.83337 9.67433 5.89323 9.55475 6.01296C9.43502 6.13282 9.37516 6.28129 9.37516 6.45837V9.93921C9.37516 10.0373 9.39336 10.1323 9.42975 10.2242C9.466 10.3162 9.52315 10.4012 9.6012 10.4792L12.4554 13.3334C12.5706 13.4488 12.7156 13.5078 12.8904 13.5105C13.0651 13.5131 13.2128 13.4541 13.3335 13.3334C13.4542 13.2127 13.5145 13.0663 13.5145 12.8942C13.5145 12.7223 13.4542 12.5759 13.3335 12.4552L10.6252 9.74692ZM10.0016 17.9167C8.90662 17.9167 7.87738 17.7089 6.91391 17.2934C5.95044 16.8778 5.11238 16.3139 4.39975 15.6015C3.68711 14.8891 3.12287 14.0514 2.70704 13.0884C2.29134 12.1253 2.0835 11.0964 2.0835 10.0015C2.0835 8.9065 2.29127 7.87726 2.70683 6.91379C3.12238 5.95032 3.68634 5.11226 4.3987 4.39962C5.11107 3.68698 5.94877 3.12275 6.91183 2.70692C7.87488 2.29122 8.90384 2.08337 9.9987 2.08337C11.0937 2.08337 12.1229 2.29115 13.0864 2.70671C14.0499 3.12226 14.8879 3.68622 15.6006 4.39858C16.3132 5.11094 16.8775 5.94865 17.2933 6.91171C17.709 7.87476 17.9168 8.90372 17.9168 9.99858C17.9168 11.0936 17.7091 12.1228 17.2935 13.0863C16.8779 14.0498 16.314 14.8878 15.6016 15.6005C14.8893 16.3131 14.0516 16.8773 13.0885 17.2932C12.1254 17.7089 11.0965 17.9167 10.0016 17.9167ZM10.0002 16.6667C11.8474 16.6667 13.4203 16.0174 14.7189 14.7188C16.0175 13.4202 16.6668 11.8473 16.6668 10C16.6668 8.15282 16.0175 6.5799 14.7189 5.28129C13.4203 3.98268 11.8474 3.33337 10.0002 3.33337C8.15294 3.33337 6.58002 3.98268 5.28141 5.28129C3.9828 6.5799 3.3335 8.15282 3.3335 10C3.3335 11.8473 3.9828 13.4202 5.28141 14.7188C6.58002 16.0174 8.15294 16.6667 10.0002 16.6667Z" fill="#6A80FE"/>
</svg>
