<svg width="20" height="20" viewBox="0 0 20 20" fill="none" xmlns="http://www.w3.org/2000/svg">
<path d="M10 12.2308C9.89961 12.2308 9.80613 12.2148 9.71961 12.1827C9.63308 12.1506 9.55079 12.0956 9.47273 12.0177L5.72752 8.27251C5.61224 8.15709 5.55322 8.01202 5.55044 7.8373C5.5478 7.66272 5.60683 7.51501 5.72752 7.39418C5.84836 7.27348 5.99474 7.21313 6.16669 7.21313C6.33863 7.21313 6.48502 7.27348 6.60585 7.39418L10 10.7886L13.3942 7.39418C13.5096 7.2789 13.6547 7.21987 13.8294 7.21709C14.004 7.21445 14.1517 7.27348 14.2725 7.39418C14.3932 7.51501 14.4536 7.6614 14.4536 7.83334C14.4536 8.00529 14.3932 8.15168 14.2725 8.27251L10.5273 12.0177C10.4493 12.0956 10.367 12.1506 10.2804 12.1827C10.1939 12.2148 10.1004 12.2308 10 12.2308Z" fill="#9CA3AF"/>
</svg>
