<svg width="24" height="24" viewBox="0 0 24 24" fill="none" xmlns="http://www.w3.org/2000/svg">
<path d="M12.9462 12L8.873 7.92701C8.73466 7.78851 8.66383 7.61443 8.6605 7.40476C8.65733 7.19526 8.72816 7.01801 8.873 6.87301C9.018 6.72818 9.19366 6.65576 9.4 6.65576C9.60633 6.65576 9.782 6.72818 9.927 6.87301L14.4212 11.3673C14.5147 11.4609 14.5807 11.5597 14.6192 11.6635C14.6577 11.7673 14.677 11.8795 14.677 12C14.677 12.1205 14.6577 12.2327 14.6192 12.3365C14.5807 12.4403 14.5147 12.5391 14.4212 12.6328L9.927 17.127C9.7885 17.2653 9.61441 17.3362 9.40475 17.3395C9.19525 17.3427 9.018 17.2718 8.873 17.127C8.72816 16.982 8.65575 16.8063 8.65575 16.6C8.65575 16.3937 8.72816 16.218 8.873 16.073L12.9462 12Z" fill="#374151"/>
</svg>
