<svg width="76" height="24" viewBox="0 0 76 24" fill="none" xmlns="http://www.w3.org/2000/svg">
<g clip-path="url(#clip0_164_5911)">
<path d="M59.6518 6.12549V10.1171H68.5168C68.5168 10.1171 62.9073 16.7698 62.8072 24H68.0911C68.0911 24 66.8891 17.4728 74.5521 9.38909V6.12549H59.6769H59.6518Z" fill="#231815"/>
<path d="M11.0944 3.89121C9.46669 0.677824 1.47815 0 1.47815 0C6.61185 1.70711 8.69037 2.7364 9.49173 3.64017C9.49173 3.64017 9.51678 3.66527 9.56686 3.71548C9.69207 3.86611 9.79224 4.01674 9.84233 4.16736C10.0928 4.66946 10.268 5.49791 9.64199 6.45188C8.99088 7.6318 7.53842 9.01255 6.81219 9.86611C6.51168 10.2427 6.03587 11.0962 6.48664 12.1004C6.48664 12.1506 6.51168 12.1757 6.53672 12.2259C6.53672 12.2259 6.53672 12.2259 6.53672 12.251C7.43825 13.9582 8.69037 14.1088 8.69037 14.1088C7.51338 13.5063 7.08766 12.728 6.98749 12.0502C6.98749 11.9749 6.98749 11.8996 6.98749 11.8494V11.7992C6.98749 11.1464 7.26296 10.5941 7.53842 10.2176C8.18953 9.46444 9.1161 8.66109 9.81728 7.95816C10.5686 7.25523 10.9692 6.57741 11.1696 6.0251C11.1696 6.0251 11.1696 6.0251 11.1696 6C11.2447 5.74895 11.2948 5.54812 11.3198 5.34728C11.3198 5.34728 11.3198 5.34728 11.3198 5.32218C11.3198 5.27197 11.3198 5.22176 11.3198 5.19665C11.3699 4.41841 11.0694 3.94142 11.0694 3.94142L11.0944 3.89121Z" fill="url(#paint0_linear_164_5911)"/>
<path d="M21.4867 16.795C21.4867 16.795 23.1145 16.7197 22.4384 18.8034C22.4384 18.8034 23.9409 18.5775 24.1663 17.0963C24.1663 17.0963 24.1663 17.0963 24.1663 17.0712C24.1663 17.021 24.1663 16.9457 24.1663 16.8954C24.1663 16.795 24.1663 16.7197 24.1663 16.6695C24.1162 16.4687 23.9159 16.067 23.3649 16.2929C23.3649 16.2929 22.4133 16.5942 22.5385 15.7657C22.5385 15.6904 22.6136 15.4896 22.8641 15.339C23.1896 15.1381 23.7906 14.9875 24.6922 15.6151L20.6854 6.17578H15.5016L11.3195 16.0168C11.9205 16.4436 12.797 16.7699 14.0742 16.8452H21.4367L21.4867 16.795ZM14.9757 15.5147C15.176 15.339 15.5517 15.0879 16.1527 14.8871C16.4782 14.7867 16.8038 14.7113 17.0041 14.6862C17.0793 14.6862 17.1294 14.6862 17.2045 14.6611V14.0586C16.7537 14.0084 16.4532 13.7574 16.328 13.6318C16.2779 13.5816 16.2529 13.5063 16.2529 13.4812C16.303 11.749 18.131 11.4477 18.131 11.4477C18.131 11.4477 19.9591 11.749 20.0092 13.4812C20.0092 13.5314 20.0092 13.5816 19.9341 13.6318C19.8089 13.7574 19.5334 14.0084 19.0576 14.0586V14.6611C19.0576 14.6611 19.1828 14.6611 19.258 14.6862C19.4583 14.7113 19.7839 14.7867 20.1094 14.8871C20.7104 15.0879 21.061 15.339 21.2864 15.5147C21.4367 15.6653 21.5118 15.7657 21.5118 15.7657H14.7754C14.7754 15.7657 14.8505 15.6402 15.0007 15.5147H14.9757Z" fill="#231815"/>
<path d="M10.6686 17.6736L10.1177 18.979H5.23439V6.12549H0.000518799V24H14.8256L16.8791 21.8912C16.8791 21.8912 13.4734 21.0627 10.6686 17.6736Z" fill="#231815"/>
<path d="M50.4613 6.12549H40.0186L35.511 12.4016L31.0033 6.12549H26.2202V18.979L25.7444 17.8242V17.7489H25.7194L25.6443 17.5983C24.9681 18.7029 24.2419 19.5062 23.5156 20.1088C23.2151 20.3347 23.0148 20.4853 23.0148 20.4853C22.0381 21.1882 20.8361 21.7657 19.4337 21.8661L21.4872 24H31.1035V13.4811L35.511 20.0585L39.9184 13.4811V24H44.8017V18.2761H50.4613C53.216 17.8744 55.3196 15.3138 55.3196 12.2008C55.3196 9.08783 53.1909 6.52716 50.4613 6.12549ZM49.66 14.2343C49.4596 14.4351 49.2092 14.5606 49.0089 14.6108C49.0089 14.6108 49.0089 14.6108 48.9838 14.6108C48.8085 14.6359 48.6583 14.6611 48.6082 14.6611H44.952V10.1673H48.7835H48.8336C48.8336 10.1673 48.9087 10.1673 48.9337 10.1673H48.9838C49.71 10.3431 50.261 11.2719 50.261 12.4016C50.261 13.1548 50.0106 13.8075 49.6349 14.2092L49.66 14.2343Z" fill="#231815"/>
</g>
<defs>
<linearGradient id="paint0_linear_164_5911" x1="6.41151" y1="14.0837" x2="6.41151" y2="0" gradientUnits="userSpaceOnUse">
<stop stop-color="#231815"/>
<stop offset="0.52" stop-color="#231815" stop-opacity="0.94"/>
<stop offset="0.73" stop-color="#231815" stop-opacity="0.74"/>
<stop offset="0.89" stop-color="#231815" stop-opacity="0.39"/>
<stop offset="1" stop-color="#231815" stop-opacity="0"/>
</linearGradient>
<clipPath id="clip0_164_5911">
<rect width="74.5263" height="24" fill="white" transform="translate(0.000518799)"/>
</clipPath>
</defs>
</svg>
